<svg width="14" height="14" viewBox="0 0 14 14" fill="none" xmlns="http://www.w3.org/2000/svg">
<path fill-rule="evenodd" clip-rule="evenodd" d="M2.70711 1.29289C2.31658 0.902369 1.68342 0.902369 1.29289 1.29289C0.902369 1.68342 0.902369 2.31658 1.29289 2.70711L5.58578 7L1.2935 11.2923C0.902979 11.6828 0.902979 12.316 1.2935 12.7065C1.68403 13.097 2.31719 13.097 2.70772 12.7065L7 8.41421L11.2916 12.7058C11.6822 13.0964 12.3153 13.0964 12.7058 12.7058C13.0964 12.3153 13.0964 11.6822 12.7058 11.2916L8.41421 7L12.7065 2.70775C13.097 2.31723 13.097 1.68406 12.7065 1.29354C12.3159 0.903012 11.6828 0.903012 11.2922 1.29354L7 5.58578L2.70711 1.29289Z" fill="#232323"/>
</svg>
