<svg width="102" height="47" viewBox="0 0 102 47" fill="none" xmlns="http://www.w3.org/2000/svg">
<path d="M17.3449 18.961V13.6082L0.221698 15.874V22.2036L8.77749 21.1789L0 33.6999V38.922L18.045 37.0864V30.5853L8.35305 31.6608L17.3449 18.961Z" fill="white"/>
<path d="M77.8685 5.91534C74.4992 5.28892 71.3853 6.0069 68.5265 8.05329C65.6824 10.091 63.9205 12.8393 63.2277 16.2955C62.5465 19.743 63.1124 22.9056 64.9239 25.7978C66.7282 28.6785 69.2646 30.4705 72.5463 31.1754C75.8426 31.873 78.9405 31.2583 81.8444 29.318C84.763 27.3675 86.6226 24.6438 87.4058 21.144C88.1862 17.6094 87.6465 14.3436 85.7825 11.367C83.9097 8.37739 81.2669 6.55919 77.8685 5.91534ZM80.0125 21.083C79.2585 22.4884 78.1397 23.452 76.6608 23.9767C75.1877 24.4999 73.7875 24.4331 72.4588 23.782C71.1256 23.1047 70.2564 22.0379 69.845 20.5816C69.4308 19.1122 69.5927 17.6646 70.3337 16.2345C71.0833 14.8276 72.1889 13.8523 73.6577 13.3073C75.1308 12.7608 76.5339 12.8103 77.867 13.457C79.2249 14.1285 80.1161 15.2113 80.5347 16.701C80.9504 18.1806 80.7753 19.6412 80.0125 21.083Z" fill="white"/>
<path d="M36.7187 23.2675C36.7187 24.7659 36.233 26.103 35.266 27.2759C34.3136 28.4445 33.1628 29.1029 31.8137 29.2511C30.4703 29.3993 29.3254 28.9997 28.3759 28.055C27.4293 27.1117 26.9567 25.9025 26.9567 24.4229V12.4324L20.9009 13.2492V25.1394C20.9009 28.3994 21.9496 31.0853 24.0586 33.2058C26.1793 35.3118 28.7609 36.2158 31.8151 35.9062C34.0598 35.678 35.6977 34.8903 36.7202 33.5386V34.3787C36.7202 35.8771 36.2345 37.2056 35.2675 38.3639C34.3151 39.5179 33.1643 40.1574 31.8151 40.2868C31.8151 40.2868 28.2432 40.7402 25.8541 38.1561L22.0954 41.4233L20.8848 42.4756C20.8848 42.4756 24.6785 46.9826 30.6585 47C30.66 46.9971 30.6614 46.9956 30.6614 46.9927C31.0406 47.0015 31.4242 46.9971 31.8151 46.9637C34.8678 46.7006 37.5005 45.2821 39.7029 42.6994C41.9184 40.1283 43.0371 37.1474 43.0517 33.7697V10.2625L36.7202 11.1156V23.2675H36.7187Z" fill="white"/>
<path d="M54.6106 9.40932C54.3029 9.58518 54.0009 9.79302 53.7238 10.0343L53.7399 8.92825L47.4711 9.76105V34.277L53.3738 33.761L53.5692 20.5612C53.6888 19.0177 54.5785 14.3131 60.948 13.7361C60.948 10.0488 60.948 7.97046 60.948 7.97046C60.948 7.97046 56.7853 8.01551 54.6106 9.40932Z" fill="white"/>
<path d="M89.3749 5.98944C88.7011 5.98944 88.2095 6.44435 88.2095 7.05914C88.2095 7.65068 88.7011 8.09542 89.3749 8.09542C90.0371 8.09542 90.5636 7.65213 90.5636 7.05914C90.5636 6.44435 90.0371 5.98944 89.3749 5.98944Z" fill="white"/>
<path d="M94.1166 0L91.0201 7.97044H93.1117L93.6368 6.55919H96.4707L97.0191 7.97044H99.1442L96.0011 0H94.1166ZM94.0714 4.94156L95.0661 2.14086L96.0142 4.94156H94.0714Z" fill="white"/>
<path d="M102 0H99.977V7.97044H102V0Z" fill="white"/>
</svg>
