<svg width="83" height="38" viewBox="0 0 83 38" fill="none" xmlns="http://www.w3.org/2000/svg">
<path d="M14.114 15.3302V11.0023L0.180401 12.8343V17.9518L7.14247 17.1234L0 27.2467V31.4688L14.6837 29.9847V24.7285L6.79709 25.5981L14.114 15.3302Z" fill="black"/>
<path d="M63.3636 4.78262C60.6219 4.27616 58.088 4.85665 55.7618 6.51118C53.4474 8.15865 52.0137 10.3807 51.45 13.1751C50.8957 15.9624 51.3562 18.5194 52.8303 20.8578C54.2984 23.1869 56.3623 24.6357 59.0328 25.2057C61.715 25.7697 64.2359 25.2726 66.5989 23.7039C68.9738 22.1269 70.487 19.9248 71.1244 17.0952C71.7593 14.2374 71.3202 11.597 69.8034 9.19038C68.2795 6.77322 66.1289 5.30319 63.3636 4.78262ZM65.1082 17.0458C64.4946 18.1822 63.5843 18.9612 62.3809 19.3854C61.1821 19.8085 60.0428 19.7544 58.9615 19.228C57.8768 18.6804 57.1694 17.8179 56.8347 16.6404C56.4976 15.4524 56.6294 14.282 57.2323 13.1257C57.8423 11.9883 58.742 11.1998 59.9371 10.7591C61.1359 10.3173 62.2776 10.3572 63.3624 10.8802C64.4673 11.423 65.1925 12.2985 65.5331 13.503C65.8714 14.6992 65.729 15.8802 65.1082 17.0458Z" fill="black"/>
<path d="M29.8791 18.8119C29.8791 20.0234 29.4839 21.1045 28.697 22.0528C27.922 22.9976 26.9855 23.5299 25.8877 23.6498C24.7946 23.7696 23.8629 23.4465 23.0903 22.6827C22.32 21.92 21.9355 20.9424 21.9355 19.7461V10.0516L17.0077 10.712V20.3254C17.0077 22.9612 17.861 25.1327 19.5772 26.8472C21.3029 28.5499 23.4036 29.2808 25.8889 29.0305C27.7154 28.846 29.0483 28.2091 29.8803 27.1163V27.7955C29.8803 29.007 29.485 30.081 28.6982 31.0176C27.9231 31.9506 26.9867 32.4676 25.8889 32.5722C25.8889 32.5722 22.9823 32.9388 21.0382 30.8495L17.9797 33.4911L16.9946 34.3419C16.9946 34.3419 20.0816 37.9858 24.9477 37.9999C24.9489 37.9976 24.9501 37.9964 24.9501 37.9941C25.2587 38.0011 25.5708 37.9976 25.8889 37.9706C28.373 37.7579 30.5152 36.611 32.3074 34.5229C34.1102 32.4441 35.0205 30.034 35.0324 27.3031V8.29724L29.8803 8.98702V18.8119H29.8791Z" fill="black"/>
<path d="M44.4381 7.60755C44.1876 7.74974 43.9419 7.91777 43.7164 8.11284L43.7295 7.2186L38.6284 7.89192V27.7133L43.4316 27.2962L43.5906 16.624C43.688 15.3761 44.4119 11.5723 49.5949 11.1058C49.5949 8.12459 49.5949 6.44421 49.5949 6.44421C49.5949 6.44421 46.2076 6.48064 44.4381 7.60755Z" fill="black"/>
<path d="M72.7266 4.84253C72.1783 4.84253 71.7783 5.21033 71.7783 5.70739C71.7783 6.18565 72.1783 6.54523 72.7266 6.54523C73.2654 6.54523 73.6939 6.18683 73.6939 5.70739C73.6939 5.21033 73.2654 4.84253 72.7266 4.84253Z" fill="black"/>
<path d="M76.5851 0L74.0654 6.44418H75.7674L76.1946 5.30317H78.5007L78.9469 6.44418H80.6762L78.1185 0H76.5851ZM76.5483 3.9953L77.3578 1.7309L78.1292 3.9953H76.5483Z" fill="black"/>
<path d="M82.9999 0H81.3538V6.44418H82.9999V0Z" fill="black"/>
</svg>
