<svg width="18" height="18" viewBox="0 0 18 18" fill="none" xmlns="http://www.w3.org/2000/svg">
<path fill-rule="evenodd" clip-rule="evenodd" d="M3.19497 2.20503C2.92161 1.93166 2.47839 1.93166 2.20503 2.20503C1.93166 2.47839 1.93166 2.92161 2.20503 3.19497L8.008 8.99795L2.20503 14.8009C1.93166 15.0743 1.93166 15.5175 2.20503 15.7909C2.47839 16.0642 2.92161 16.0642 3.19497 15.7909L8.99795 9.9879L14.8009 15.7909C15.0743 16.0642 15.5175 16.0642 15.7909 15.7909C16.0642 15.5175 16.0642 15.0743 15.7909 14.8009L9.9879 8.99795L15.7909 3.19498C16.0642 2.92161 16.0642 2.47839 15.7909 2.20503C15.5175 1.93166 15.0743 1.93166 14.8009 2.20503L8.99795 8.008L3.19497 2.20503Z" fill="#D0D0D0"/>
</svg>
