<svg width="19" height="20" viewBox="0 0 19 20" fill="none" xmlns="http://www.w3.org/2000/svg">
<path fill-rule="evenodd" clip-rule="evenodd" d="M4.33453 4.44793C6.82044 2.27542 10.5224 1.97671 13.3334 3.6038L12.0551 3.6507C11.5473 3.67007 11.1515 4.08398 11.1716 4.57231C11.1927 5.05045 11.5948 5.42562 12.1237 5.42562H12.1248L15.7655 5.29512C16.2605 5.27575 16.649 4.88631 16.6479 4.33171L16.5139 0.856303C16.5033 0.617745 16.3988 0.398557 16.2183 0.237479C16.0378 0.0764006 15.8045 -0.018411 15.5596 0.00299808C15.0519 0.0213487 14.655 0.434238 14.675 0.92257L14.732 2.35494C13.3123 1.41396 11.655 0.875673 9.8943 0.790037C7.38306 0.66668 4.96683 1.49756 3.10161 3.13178C0.537594 5.37362 -0.548603 8.78481 0.266308 12.0319C0.366589 12.4315 0.733933 12.7098 1.15933 12.7098C1.2385 12.7098 1.31028 12.7016 1.3789 12.6833C1.87185 12.565 2.1727 12.0818 2.0513 11.6118C1.39684 8.9938 2.27086 6.24834 4.33453 4.44793Z" fill="white"/>
<path fill-rule="evenodd" clip-rule="evenodd" d="M18.7341 7.97521V7.97419C18.674 7.74175 18.5251 7.54804 18.313 7.42469C18.1029 7.30337 17.858 7.26769 17.6216 7.32376C17.3851 7.38085 17.1845 7.5246 17.0568 7.72543C16.928 7.92933 16.89 8.16789 16.9492 8.39523C17.6068 11.0122 16.7328 13.7577 14.6659 15.5601C13.2694 16.7794 11.4633 17.4503 9.58222 17.4503C8.12868 17.4503 6.71103 17.0486 5.50239 16.3074L6.92743 16.183C7.17127 16.1606 7.39294 16.0485 7.54917 15.867C7.7075 15.6845 7.78139 15.4531 7.75817 15.2166C7.71173 14.7282 7.25888 14.3684 6.75853 14.4132L3.13049 14.7293C2.62592 14.7762 2.25435 15.2094 2.3008 15.6947L2.62697 19.1956C2.66708 19.6462 3.06187 20 3.61078 20H3.6245C3.86834 19.9776 4.08896 19.8654 4.24518 19.6839C4.40352 19.5025 4.47741 19.2711 4.45419 19.0356L4.33069 17.6909C5.74095 18.6084 7.37605 19.1324 9.1051 19.217C11.6638 19.3455 14.041 18.4962 15.8988 16.8753C18.4629 14.6345 19.548 11.2243 18.7341 7.97521Z" fill="white"/>
</svg>
